#!OML:ASF H:\Pregnant\Project 1\Capture day 1\Session 1\femalepreg.ASF
:FULLY-SPECIFIED
:DEGREES
761
root 6.34791 15.6745 14.1986 16.578 -24.8153 0.155351
lowerback -20.8332 -0.332565 -3.08736
upperback -4.26899 0.233716 -0.916779
thorax 6.98623 0.0316345 0.828384
lowerneck -20.9483 3.8827 5.54705
upperneck 19.2776 2.01311 6.50485
head 9.60485 2.10919 1.65549
rclavicle -7.67806e-015 3.97569e-015
rhumerus -36.8322 7.9946 -87.5504
rradius 23.3502
rwrist -0.171169
rhand -12.0922 -15.4019
rfingers 7.12502
rthumb 13.9682 -44.9127
lclavicle -7.67806e-015 3.97569e-015
lhumerus -38.2114 -30.504 95.1784
lradius 33.5564
lwrist 37.3543
lhand -13.516 11.0417
lfingers 7.12502
lthumb 12.5958 40.642
rfemur -31.844 24.8427 17.8013
rtibia 37.7782
rfoot -17.5308 -5.38877
rtoes -4.57994
lfemur -17.3366 -16.2255 -20.2655
ltibia 14.1991
lfoot -8.84073 3.14641
ltoes -13.6515
762
root 6.35043 15.6764 14.1978 16.6712 -24.7051 0.0679305
lowerback -20.847 -0.386061 -3.19329
upperback -4.24003 0.193477 -0.979453
thorax 7.02622 0.0100267 0.81033
lowerneck -21.1514 3.76351 5.45044
upperneck 19.1476 1.81157 6.74584
head 9.59543 2.03527 1.72841
rclavicle 2.91841e-014 -9.93923e-015
rhumerus -36.7802 8.14989 -87.6922
rradius 23.7041
rwrist -0.557712
rhand -12.1075 -15.396
rfingers 7.12502
rthumb 13.9534 -44.9078
lclavicle 2.91841e-014 -9.93923e-015
lhumerus -38.2868 -31.1407 95.4903
lradius 33.3354
lwrist 37.0688
lhand -13.6259 11.233
lfingers 7.12502
lthumb 12.4898 40.8397
rfemur -31.8515 24.7904 17.8676
rtibia 37.6772
rfoot -17.4663 -5.39491
rtoes -4.58724
lfemur -17.5578 -16.2562 -20.1484
ltibia 14.4259
lfoot -8.89893 3.11024
ltoes -13.6664
763
root 6.35203 15.6778 14.1966 16.7413 -24.5796 -0.0266885
lowerback -20.8297 -0.44353 -3.31716
upperback -4.20387 0.150392 -1.03326
thorax 7.05757 -0.0132277 0.811274
lowerneck -21.3496 3.63516 5.34535
upperneck 19.0044 1.60321 6.98308
head 9.58117 1.95669 1.79984
rclavicle -4.00675e-014 -3.81667e-014
rhumerus -36.7577 8.34377 -87.845
rradius 24.1094
rwrist -1.00417
rhand -12.1595 -15.3794
rfingers 7.12502
rthumb 13.9033 -44.8946
lclavicle -4.00675e-014 -3.81667e-014
lhumerus -38.3378 -31.7167 95.7724
lradius 33.1015
lwrist 36.8959
lhand -13.8111 11.3804
lfingers 7.12502
lthumb 12.3113 40.998
rfemur -31.8176 24.7536 17.9594
rtibia 37.5659
rfoot -17.3963 -5.42825
rtoes -4.57778
lfemur -17.7679 -16.2848 -20.0243
ltibia 14.6821
lfoot -8.97589 3.05722
ltoes -13.6507
764
root 6.35352 15.6791 14.1947 16.8055 -24.4561 -0.129094
lowerback -20.7991 -0.491538 -3.44168
upperback -4.15644 0.120076 -1.09046
thorax 7.09383 -0.0304243 0.812231
lowerneck -21.5853 3.49712 5.22382
upperneck 18.8643 1.37928 7.24056
head 9.57554 1.87286 1.87969
rclavicle -6.44808e-015 2.8625e-014
rhumerus -36.7411 8.5489 -88.0075
rradius 24.5556
rwrist -1.48809
rhand -12.2498 -15.3538
rfingers 7.12502
rthumb 13.8163 -44.875
lclavicle -6.44808e-015 2.8625e-014
lhumerus -38.3325 -32.2208 95.9849
lradius 32.8685
lwrist 36.8527
lhand -14.0337 11.4805
lfingers 7.12502
lthumb 12.0966 41.1108
rfemur -31.7731 24.7145 18.0647
rtibia 37.449
rfoot -17.3258 -5.4548
rtoes -4.57434
lfemur -17.9769 -16.3086 -19.8933
ltibia 14.9503
lfoot -9.05712 3.00471
ltoes -13.677
765
root 6.35493 15.6802 14.1921 16.8611 -24.3381 -0.236081
lowerback -20.7554 -0.529496 -3.56771
upperback -4.1019 0.103407 -1.15296
thorax 7.13044 -0.0410869 0.811879
lowerneck -21.8341 3.34751 5.08512
upperneck 18.7236 1.13972 7.51973
head 9.5731 1.78342 1.96784
rclavicle 2.48978e-014 4.05521e-014
rhumerus -36.7424 8.76884 -88.1842
rradius 25.0423
rwrist -2.00771
rhand -12.3832 -15.3329
rfingers 7.12502
rthumb 13.6877 -44.8628
lclavicle 2.48978e-014 4.05521e-014
lhumerus -38.2722 -32.6255 96.1105
lradius 32.649
lwrist 36.9296
lhand -14.2765 11.5296
lfingers 7.12502
lthumb 11.8625 41.1736
rfemur -31.7197 24.674 18.18
rtibia 37.3303
rfoot -17.2573 -5.47515
rtoes -4.60369
lfemur -18.1761 -16.3318 -19.7583
ltibia 15.2171
lfoot -9.13674 2.95503
ltoes -13.7209
